<?xml version="1.0" standalone="no"?>
<!DOCTYPE svg PUBLIC "-//W3C//DTD SVG 20010904//EN"
 "http://www.w3.org/TR/2001/REC-SVG-20010904/DTD/svg10.dtd">
<svg version="1.0" xmlns="http://www.w3.org/2000/svg"
 width="402.000000pt" height="376.000000pt" viewBox="0 0 402.000000 376.000000"
 preserveAspectRatio="xMidYMid meet">

<g transform="translate(0.000000,376.000000) scale(0.100000,-0.100000)"
fill="#000000" stroke="none">
<path d="M0 1880 l0 -1880 2010 0 2010 0 0 1880 0 1880 -2010 0 -2010 0 0
-1880z m2360 1501 c105 -23 240 -71 335 -118 194 -98 441 -332 564 -536 l23
-38 0 -855 c0 -978 13 -861 -109 -981 -71 -70 -193 -168 -276 -220 -74 -47
-310 -160 -398 -191 -81 -29 -145 -46 -267 -71 -96 -20 -474 -6 -632 24 -76
14 -238 68 -301 101 -141 72 -325 261 -432 445 l-27 46 0 965 0 965 29 39 c68
94 216 209 358 279 152 75 366 137 533 156 52 6 97 13 100 16 3 3 93 3 200 1
153 -4 218 -10 300 -27z"/>
<path d="M1965 2846 c-33 -7 -70 -18 -82 -24 -17 -10 -23 -10 -23 -1 0 6 -9 0
-21 -15 -11 -14 -26 -26 -33 -26 -18 0 -99 -88 -121 -130 -37 -71 -54 -141
-54 -218 -1 -96 1 -122 10 -122 3 0 10 -19 14 -42 5 -24 9 -45 9 -48 3 -11 66
-92 66 -85 0 4 9 0 20 -10 11 -10 17 -21 15 -25 -5 -9 90 -68 155 -96 66 -29
270 -25 270 5 0 5 -16 5 -37 0 -53 -12 -55 -11 -41 10 12 19 65 55 83 56 6 1
9 6 8 13 -2 6 4 9 13 5 8 -3 14 -2 12 3 -2 5 2 9 7 9 6 0 9 -4 7 -8 -1 -5 2
-6 8 -2 7 4 8 11 1 18 -10 13 12 77 27 77 11 0 34 49 28 59 -3 4 -24 14 -46
21 -23 8 -47 21 -53 30 -7 9 -21 19 -32 22 -11 3 -29 9 -39 14 -13 5 -17 4
-13 -4 4 -6 20 -13 36 -17 16 -3 37 -17 45 -31 9 -13 25 -24 35 -24 27 0 51
-10 51 -22 0 -6 -11 -23 -25 -40 -14 -16 -25 -35 -25 -43 0 -7 -31 -38 -69
-69 -38 -31 -72 -63 -75 -71 -9 -25 -46 -18 -47 8 -1 20 -2 20 -6 2 -7 -26
-24 -36 -40 -23 -7 6 -13 7 -13 4 0 -4 -8 -2 -18 3 -11 6 -32 12 -47 15 -16 3
-33 10 -39 16 -5 5 -17 10 -25 10 -25 0 -160 135 -178 177 -35 82 -47 217 -27
307 10 46 43 117 70 154 22 28 28 31 46 21 18 -10 20 -9 15 5 -7 18 -1 23 37
30 16 3 31 8 35 12 3 4 -9 4 -27 1 -21 -4 -31 -3 -27 3 3 6 12 10 19 10 8 0
19 7 26 15 13 16 51 28 160 51 57 12 73 12 133 -3 45 -10 66 -20 63 -28 -5
-14 84 -115 102 -115 15 0 16 -17 0 -26 -7 -4 -8 -3 -4 4 4 7 2 12 -3 12 -19
0 -12 -16 18 -38 21 -15 28 -27 24 -42 -4 -13 0 -20 9 -20 12 0 16 -19 20 -82
5 -67 15 -114 34 -146 1 -1 13 2 27 7 17 7 28 7 32 0 9 -13 -5 -70 -15 -64 -4
3 -6 -3 -4 -12 6 -25 -58 -149 -74 -145 -8 1 -11 -2 -8 -6 8 -13 -48 -58 -107
-89 -59 -29 -55 -42 5 -19 71 27 210 180 200 219 -1 4 1 7 5 7 11 0 18 70 17
180 0 110 -23 200 -59 236 -13 13 -22 24 -20 24 3 0 -14 17 -38 38 -62 56
-129 95 -97 57 7 -8 18 -15 26 -15 7 0 15 -4 18 -8 10 -16 -64 -5 -84 13 -21
19 -18 38 4 29 8 -3 17 0 22 7 4 8 3 10 -4 5 -7 -4 -12 -3 -12 2 0 5 -20 13
-45 16 -24 4 -46 10 -49 14 -7 12 -118 11 -181 -2z m407 -146 c21 -23 38 -44
38 -49 0 -13 -52 -33 -62 -23 -5 5 -10 26 -11 46 -1 20 -5 36 -8 36 -4 0 -9 7
-13 15 -10 28 17 15 56 -25z m-72 9 c0 -6 -4 -7 -10 -4 -5 3 -10 11 -10 16 0
6 5 7 10 4 6 -3 10 -11 10 -16z m115 -89 c-3 -5 -2 -10 3 -10 6 0 12 -6 15
-13 3 -9 -7 -12 -34 -12 -40 1 -57 9 -40 20 6 3 11 2 11 -3 0 -5 7 -9 15 -9 8
0 15 9 15 19 0 10 5 18 11 18 5 0 7 -4 4 -10z m51 -74 c4 -11 2 -22 -5 -24 -7
-2 -8 -10 -2 -20 4 -9 9 -42 9 -72 0 -30 -2 -49 -4 -43 -4 10 -11 10 -26 2
-16 -8 -22 -7 -33 8 -17 22 -28 111 -19 147 5 23 11 26 40 24 24 -1 36 -8 40
-22z"/>
<path d="M2048 2823 c7 -3 16 -2 19 1 4 3 -2 6 -13 5 -11 0 -14 -3 -6 -6z"/>
<path d="M2012 2800 c-8 -13 -8 -20 -2 -20 6 0 13 7 17 15 9 24 -1 27 -15 5z"/>
<path d="M2090 2810 c8 -5 20 -10 25 -10 6 0 3 5 -5 10 -8 5 -19 10 -25 10 -5
0 -3 -5 5 -10z"/>
<path d="M1950 2782 c-23 -18 -21 -42 3 -42 9 0 9 2 0 8 -14 9 -6 24 22 40 11
6 15 12 9 12 -7 0 -22 -8 -34 -18z"/>
<path d="M2130 2796 c0 -2 8 -10 18 -17 15 -13 16 -12 3 4 -13 16 -21 21 -21
13z"/>
<path d="M2035 2769 c-4 -6 2 -20 13 -32 11 -12 22 -29 25 -37 4 -12 6 -11 6
3 1 9 -8 25 -19 34 -11 10 -20 21 -20 25 0 16 25 7 54 -19 l31 -28 -29 33
c-31 33 -50 40 -61 21z"/>
<path d="M1885 2761 c11 -5 29 -18 39 -30 13 -14 31 -21 58 -21 40 0 52 -14
18 -23 -25 -6 -26 -40 -2 -58 14 -11 15 -11 5 1 -20 21 -15 44 9 55 13 6 24
19 25 30 2 11 0 15 -2 9 -9 -18 -96 0 -116 25 -9 11 -25 21 -36 20 -16 0 -16
-1 2 -8z"/>
<path d="M2162 2750 c-18 -29 -15 -38 4 -12 9 13 14 25 12 27 -2 2 -9 -5 -16
-15z"/>
<path d="M1970 2756 c0 -2 8 -10 18 -17 15 -13 16 -12 3 4 -13 16 -21 21 -21
13z"/>
<path d="M1810 2715 c-1 -5 -2 -14 -1 -19 1 -5 -3 -22 -9 -37 -9 -20 -9 -33 0
-49 9 -17 9 -25 -4 -39 -23 -25 -20 -49 9 -83 14 -16 30 -49 36 -72 9 -38 17
-46 65 -70 30 -15 61 -37 69 -49 8 -12 15 -16 15 -8 0 17 -43 51 -92 73 -31
14 -39 24 -49 62 -6 24 -22 55 -35 67 -28 26 -30 46 -9 77 13 17 13 26 5 43
-9 15 -9 28 0 49 6 16 10 37 7 47 -3 10 -6 14 -7 8z"/>
<path d="M2134 2693 c20 -24 37 -22 35 5 -1 15 -2 14 -6 -1 -5 -18 -5 -18 -26
0 l-22 18 19 -22z"/>
<path d="M2043 2684 c4 -4 3 -12 -2 -18 -12 -16 -21 -57 -10 -50 5 3 9 14 9
26 0 15 5 19 19 15 24 -6 18 18 -7 28 -9 3 -13 3 -9 -1z"/>
<path d="M2105 2632 c16 -20 17 -25 5 -33 -10 -6 -12 -11 -4 -16 6 -5 13 -15
16 -23 4 -8 5 2 4 22 -1 23 -9 45 -21 55 -19 18 -19 18 0 -5z"/>
<path d="M2075 2537 c-8 -13 -26 -29 -40 -35 -15 -7 -25 -20 -25 -32 0 -23
-10 -25 -30 -7 -8 6 -6 2 4 -10 26 -31 36 -29 36 6 0 22 6 31 30 41 17 7 30
18 30 26 0 7 8 18 18 23 9 6 11 11 5 11 -7 0 -19 -11 -28 -23z"/>
<path d="M1923 2473 c4 -3 0 -14 -9 -24 -8 -9 -14 -28 -12 -41 2 -19 9 -23 34
-22 26 1 31 -2 27 -17 -3 -10 2 -26 11 -34 14 -14 16 -14 16 -1 0 8 -5 18 -10
21 -6 4 -8 15 -5 26 6 17 2 19 -27 17 -27 -3 -34 1 -36 18 -2 14 7 29 24 43
26 21 26 21 4 21 -13 0 -20 -3 -17 -7z"/>
<path d="M2078 2343 c7 -3 16 -2 19 1 4 3 -2 6 -13 5 -11 0 -14 -3 -6 -6z"/>
<path d="M2045 2329 c-4 -6 -5 -12 -2 -15 2 -3 7 2 10 11 7 17 1 20 -8 4z"/>
<path d="M2021 2269 c-7 -12 -10 -23 -8 -26 3 -3 11 5 17 17 6 12 10 23 8 25
-2 2 -10 -5 -17 -16z"/>
<path d="M2012 2200 c6 -18 17 -34 24 -37 8 -3 12 -8 10 -12 -3 -4 4 -12 15
-19 16 -10 19 -9 19 4 0 8 -4 13 -8 10 -5 -3 -19 12 -31 34 -28 50 -44 60 -29
20z"/>
<path d="M2040 1655 c7 -9 15 -13 17 -11 7 7 -7 26 -19 26 -6 0 -6 -6 2 -15z"/>
<path d="M2090 1650 c0 -5 5 -10 10 -10 6 0 10 5 10 10 0 6 -4 10 -10 10 -5 0
-10 -4 -10 -10z"/>
<path d="M1556 1434 c-10 -36 -27 -75 -36 -87 l-17 -21 -13 23 c-6 13 -10 47
-8 77 1 30 0 54 -3 54 -12 0 -18 -75 -9 -114 16 -70 47 -66 81 9 l19 40 0 -47
c0 -27 5 -48 10 -48 6 0 10 37 10 90 0 50 -3 90 -8 90 -4 0 -16 -30 -26 -66z"/>
<path d="M2318 1465 c-11 -60 -10 -157 2 -150 6 3 10 22 10 41 l0 34 46 -35
c25 -19 51 -35 57 -34 7 0 3 6 -7 12 -11 7 -35 26 -54 42 l-34 31 37 37 c21
21 35 41 31 44 -3 4 -22 -8 -40 -26 l-35 -34 -3 39 -3 39 -7 -40z"/>
<path d="M2658 1494 c-10 -10 -8 -142 2 -174 10 -30 12 -20 10 43 -1 41 1 47
18 47 15 0 21 -9 26 -34 4 -19 15 -45 25 -57 16 -20 21 -21 35 -10 9 7 16 21
16 29 0 13 -2 13 -13 -2 -12 -16 -15 -16 -26 -3 -6 8 -14 30 -17 49 -5 28 -2
35 18 43 15 7 23 18 23 35 0 33 -38 39 -76 11 l-28 -21 -3 26 c-2 14 -6 22
-10 18z m102 -33 c0 -13 -22 -27 -52 -35 -34 -8 -37 7 -6 28 24 17 58 21 58 7z"/>
<path d="M1337 1472 c-23 -25 -22 -30 18 -92 22 -34 31 -58 25 -64 -6 -6 -15
-4 -25 4 -20 17 -32 5 -15 -15 7 -9 23 -15 34 -13 33 5 32 47 -4 96 -16 23
-30 49 -30 57 0 22 29 31 52 16 17 -11 19 -10 16 6 -5 25 -50 29 -71 5z"/>
<path d="M1868 1479 c-26 -15 -22 -48 12 -98 17 -24 30 -50 30 -58 0 -15 -26
-18 -35 -3 -3 6 -11 10 -17 10 -6 0 -3 -9 7 -20 22 -24 29 -25 49 -5 18 18 13
35 -27 92 -17 24 -27 49 -24 57 8 19 53 21 60 4 2 -7 7 -10 11 -7 9 8 -21 39
-37 39 -7 0 -20 -5 -29 -11z"/>
<path d="M1713 1468 c-6 -7 -18 -29 -27 -48 l-16 -35 5 43 c3 25 1 42 -5 42
-6 0 -10 -34 -10 -85 0 -50 4 -85 10 -85 6 0 10 8 10 18 0 29 28 116 45 137
23 31 34 3 36 -90 1 -77 2 -78 12 -38 15 63 -1 147 -29 151 -11 2 -26 -3 -31
-10z"/>
<path d="M2006 1458 c-9 -35 -7 -146 3 -152 11 -7 71 4 71 13 0 3 -15 6 -32 6
-27 0 -34 4 -36 23 -3 17 2 22 17 22 12 0 21 4 21 9 0 5 -10 7 -22 3 -19 -5
-21 -2 -15 28 4 18 7 38 7 46 0 7 14 15 33 17 l32 4 -36 1 c-30 2 -38 -2 -43
-20z"/>
<path d="M2156 1443 c-8 -54 -7 -116 3 -132 6 -9 18 -11 40 -6 43 9 49 25 6
18 -33 -5 -35 -4 -35 21 0 16 6 26 14 26 8 0 18 5 22 11 4 8 -1 9 -15 4 -21
-6 -22 -4 -19 37 3 39 6 44 33 49 30 7 30 7 -6 8 -35 1 -37 -1 -43 -36z"/>
<path d="M2495 1438 c-4 -24 -5 -63 -3 -88 3 -44 4 -45 37 -43 18 0 38 6 44
12 7 7 -1 8 -26 4 -35 -5 -37 -4 -37 21 0 16 6 26 14 26 8 0 18 5 22 11 4 8
-1 9 -15 4 -21 -6 -22 -4 -19 37 3 39 6 44 33 49 29 6 29 7 -7 8 -36 1 -37 0
-43 -41z"/>
<path d="M1916 1168 c-9 -54 -31 -88 -56 -88 -23 0 -50 46 -50 85 0 14 -5 25
-11 25 -19 0 -3 -80 22 -106 28 -30 53 -30 80 -3 l22 22 -5 -57 c-5 -61 -33
-111 -62 -111 -8 0 -16 -5 -15 -10 1 -15 40 -7 61 12 27 24 38 77 38 181 0 96
-13 122 -24 50z"/>
<path d="M1325 1190 c-10 -16 4 -138 20 -177 26 -62 58 -35 101 83 25 68 29
94 16 94 -5 0 -16 -26 -26 -57 -10 -32 -27 -76 -38 -97 -26 -51 -34 -37 -49
76 -12 91 -14 95 -24 78z"/>
<path d="M2108 1188 c-21 -17 -68 -176 -68 -229 0 -28 19 6 24 45 7 42 8 44
46 48 44 4 50 -5 50 -82 0 -33 3 -41 12 -32 13 13 -3 207 -21 241 -13 24 -21
26 -43 9z m35 -69 c2 -43 1 -44 -30 -47 -37 -4 -38 0 -22 49 25 73 49 72 52
-2z"/>
<path d="M2697 1172 c-26 -29 -20 -62 23 -126 23 -33 39 -66 38 -75 -5 -23
-25 -24 -46 -1 -24 26 -37 12 -16 -18 17 -24 53 -29 72 -10 21 21 13 54 -28
116 -47 69 -49 88 -15 104 21 9 28 8 46 -8 21 -19 21 -19 18 6 -3 21 -10 26
-40 28 -24 2 -40 -3 -52 -16z"/>
<path d="M1589 1165 c-64 -35 -65 -181 -1 -197 51 -14 102 47 102 122 0 42 3
47 32 58 40 15 30 28 -11 14 -22 -8 -34 -7 -48 3 -23 18 -41 18 -74 0z m56
-15 c-3 -5 -15 -10 -26 -10 -10 0 -19 5 -19 10 0 6 12 10 26 10 14 0 23 -4 19
-10z m23 -71 c-4 -37 -12 -58 -31 -76 -25 -25 -27 -26 -51 -9 -21 13 -26 25
-26 57 0 61 11 74 65 77 l48 2 -5 -51z"/>
<path d="M2317 1169 c-44 -26 -62 -150 -31 -210 12 -24 21 -30 42 -27 30 3 72
58 72 94 0 27 -16 30 -55 12 -28 -13 -35 -34 -7 -23 9 4 23 9 30 12 17 7 15
-7 -8 -44 -35 -59 -70 -33 -70 52 0 54 22 113 46 122 9 3 25 1 36 -6 17 -11
19 -10 16 6 -4 21 -44 28 -71 12z"/>
<path d="M2494 1167 c-2 -7 -3 -60 -2 -118 l3 -104 30 2 c46 3 75 12 75 23 0
9 -20 8 -71 -6 -13 -4 -18 4 -21 30 -4 32 -1 36 24 41 33 8 29 24 -4 18 -22
-4 -23 -2 -20 51 l4 56 39 0 c21 0 39 5 39 10 0 15 -90 12 -96 -3z"/>
</g>
</svg>
